<svg xmlns="http://www.w3.org/2000/svg" width="838" height="652">
  <path fill="#1BA8AD" d="M432 100h2c5.467 9.352 10.533 18.872 15.375 28.563l1.491 2.98c3.504 7.057 6.905 14.16 10.294 21.273 5.354 11.227 10.833 22.388 16.387 33.517 1.552 3.114 3.095 6.233 4.639 9.35.99 1.99 1.982 3.977 2.974 5.965l1.389 2.815 1.287 2.566 1.124 2.26c.935 1.88.935 1.88 3.04 2.711l.695-1.898c1.75-2.82 2.98-2.975 6.18-3.727 13.273-2.881 26.766-3.55 40.313-3.625l3.147-.028c16.245.067 16.245.067 21.665 5.278l1.688 1.563c2.369 2.595 2.66 4.855 2.582 8.328-2.796 21.875-29.14 42.001-45.575 54.816L521 274c1.812 4.857 4.142 9.432 6.459 14.063l1.366 2.742c1.492 2.994 2.988 5.987 4.484 8.98l3.14 6.292c2.2 4.406 4.403 8.812 6.605 13.217 2.795 5.589 5.584 11.18 8.37 16.772 2.166 4.342 4.335 8.682 6.505 13.022 1.028 2.056 2.055 4.113 3.08 6.171 5.593 11.226 11.293 22.354 17.49 33.262 2.298 4.086 4.21 7.938 5.501 12.479-9.952-.383-18.866-3.55-28.25-6.625l-7.67-2.49c-1.684-.546-3.368-1.093-5.05-1.642A314.254 314.254 0 0 0 528.862 386c-15.277-4.216-15.277-4.216-19.3-9.688A92.82 92.82 0 0 1 507 371c-1.104-1.99-2.23-3.97-3.375-5.938l-1.758-3.05c-9.929-16.015-23.619-26.942-41.226-33.207-23.671-5.232-45.913 4.404-66.067 15.91C392 346 392 346 389 346v-2l-2 1c-2.333.04-4.667.043-7 0l-1-4c-11.485 11.219-18.127 26.879-24.773 41.223l-1.156 2.445a87.922 87.922 0 0 0-1.931 4.519c-4.314 10.253-16.115 13.982-25.515 18.563a3956.919 3956.919 0 0 0-6.96 3.422l-1.82.897c-5.04 2.498-10.013 5.115-14.982 7.751-9.164 4.855-18.42 9.502-27.74 14.052-2.615 1.28-5.225 2.571-7.836 3.862-1.677.821-3.355 1.642-5.033 2.461l-2.342 1.165-2.18 1.055-1.898.931C253 444 253 444 249 444c.346-6.932 3.372-11.923 6.75-17.875 1.19-2.142 2.377-4.285 3.562-6.43l1.852-3.339c2.956-5.403 5.767-10.88 8.586-16.356 1.594-3.07 3.192-6.139 4.792-9.206.927-1.775 1.85-3.552 2.771-5.33a531.12 531.12 0 0 1 3.5-6.589l.946-1.844c5.123-9.327 14.023-13.871 23.241-18.469l3.215-1.638c2.59-1.319 5.185-2.626 7.785-3.924l-2.063-1.75L312 349c.25-2.25.25-2.25 1-4l-3.707 1.32c-48.211 17.086-48.211 17.086-60.793 12.367C246 357 246 357 244 354c-2.042-16.047 11.766-32.222 21-44.223 3.174-4.047 6.53-7.895 10.035-11.66 1.828-1.97 3.56-3.99 5.277-6.055 2.034-2.375 3.914-4.532 6.688-6.062l3 1-1 7c3.002-2.825 5.565-5.67 8-9 2.435-3.33 4.998-6.175 8-9l4 2-.578 2.266c-.661 2.936-1.218 5.73-1.422 8.734 1.648 2.567 1.648 2.567 4 4l1 3c1.356-2.395 2.71-4.79 4.062-7.188l1.233-2.184a672.609 672.609 0 0 0 9.197-16.956C328 267 328 267 329.652 264.844c1.824-2.496 2.004-4.816 2.348-7.844l5 1 1 5-4 2 2 1c-.746 7.46-2.367 14.69-4 22 5.535-3.488 7.494-8.348 10.187-14.063.977-2.01 1.955-4.021 2.934-6.03l1.472-3.04c1.973-4.02 4.052-7.978 6.157-11.93A2491.49 2491.49 0 0 0 365.25 229a265308.114 265308.114 0 0 1 4.855-9.398 17005.13 17005.13 0 0 1 10.082-19.477l1.773-3.42c2.582-4.98 5.168-9.957 7.774-14.924 8.059-15.365 15.944-30.818 23.818-46.279A2527.445 2527.445 0 0 1 432 100zm-3 106a3170.757 3170.757 0 0 0-27.883 54.697c-1.585 3.18-3.172 6.36-4.76 9.54-2.758 5.525-5.514 11.051-8.268 16.578-.695 1.396-1.392 2.79-2.089 4.185 7.34-.253 12.905-3.042 19.4-6.317 3.19-1.608 6.398-3.18 9.604-4.757l1.994-.986c8.14-4.017 16.39-7.796 24.638-11.587 6.516-3.003 12.971-6.096 19.364-9.353l-1-3-2.777-1.184c-4.408-2.484-5.636-5.423-7.785-9.878l-1.245-2.463A898.49 898.49 0 0 1 444 233c-1.743-3.529-3.49-7.055-5.242-10.58-1.163-2.346-2.32-4.696-3.467-7.05-.53-1.073-1.058-2.147-1.603-3.253l-1.426-2.918c-1.07-2.333-1.07-2.333-3.262-3.199z"/>
  <path fill="#1BA9AE" d="M432 100h2c5.467 9.352 10.533 18.872 15.375 28.563l1.491 2.98c3.033 6.109 5.994 12.25 8.927 18.407a1977.57 1977.57 0 0 0 17.424 35.614c1.483 2.962 2.962 5.925 4.441 8.89l2.916 5.827 1.406 2.821c2.11 4.207 4.255 8.372 6.577 12.464l1.172 2.085c1.022 1.8 2.067 3.586 3.114 5.37C498 226 498 226 497.381 228.79c-2 3.202-4.79 4.25-8.131 5.711-8.298 3.86-16.073 8.437-23.886 13.195l-2.723 1.645-2.421 1.48c-2.11 1.121-3.909 1.65-6.22 2.18-3.598-5.531-6.726-11.18-9.645-17.094l-1.256-2.521a3612.17 3612.17 0 0 1-3.911-7.885l-2.678-5.383c-2.174-4.37-4.344-8.743-6.51-13.117-4.885 7.614-8.792 15.605-12.627 23.776-2.21 4.686-4.475 9.346-6.727 14.011a1014.245 1014.245 0 0 0-5.815 12.252 653.17 653.17 0 0 1-5.72 11.939 209.639 209.639 0 0 0-2.12 4.518c-5.145 11.279-10.573 16.268-22.135 20.775-2.466.969-4.843 2.102-7.233 3.242a1165.25 1165.25 0 0 1-4.69 2.1l-2.57 1.155a4682.945 4682.945 0 0 1-7.926 3.545l-5.384 2.416c-8.77 3.931-8.77 3.931-11.996 5.359a435.972 435.972 0 0 0-4.058 1.824C328.141 315.19 326.171 316 323 316c.48-6.15 3.276-10.997 6.063-16.375l2.785-5.46 1.511-2.946c1.84-3.611 3.65-7.236 5.457-10.864 4.285-8.59 8.663-17.133 13.059-25.668l1.2-2.33c4.653-9.043 9.326-18.074 14.089-27.06 4.888-9.245 9.647-18.558 14.422-27.862a2059.92 2059.92 0 0 1 11.195-21.497c5.855-11.088 11.535-22.263 17.219-33.438 7.233-14.22 14.526-28.404 22-42.5z"/>
  <path fill="#1BA9AE" d="M538.688 202.813l3.22-.038c16.626-.03 16.626-.03 22.092 5.225l1.688 1.563c2.369 2.595 2.66 4.855 2.582 8.328-2.796 21.875-29.14 42.001-45.575 54.816L521 274c1.812 4.857 4.142 9.432 6.459 14.063l1.366 2.742c1.492 2.994 2.988 5.987 4.484 8.98l3.14 6.292c2.2 4.406 4.403 8.812 6.605 13.217 2.795 5.589 5.584 11.18 8.37 16.772 2.166 4.342 4.335 8.682 6.505 13.022 1.028 2.056 2.055 4.113 3.08 6.171 5.593 11.226 11.293 22.354 17.49 33.262 2.298 4.086 4.21 7.938 5.501 12.479-9.952-.383-18.866-3.55-28.25-6.625l-7.67-2.49c-1.684-.546-3.368-1.093-5.05-1.642A314.254 314.254 0 0 0 528.862 386c-15.277-4.216-15.277-4.216-19.3-9.688A92.82 92.82 0 0 1 507 371c-1.104-1.99-2.23-3.97-3.375-5.938l-1.758-3.05c-9.929-16.015-23.619-26.942-41.226-33.207-23.671-5.232-45.913 4.404-66.067 15.91C392 346 392 346 389 346v-3c1.477-1.254 1.477-1.254 3.625-2.563a180.39 180.39 0 0 0 10.457-7.124c4.673-3.42 9.266-6.638 14.418-9.313 6.29-3.283 11.885-7.436 17.595-11.613a856.306 856.306 0 0 1 9.905-7.075l2.12-1.498c5.917-4.168 11.893-8.246 17.88-12.314 17.554-11.936 34.57-23.856 50-38.5l1.753-1.65c16.02-14.557 16.02-14.557 23.372-33.913-1.202-3.671-1.323-3.972-4.504-5.632-5.179-2.399-10.068-2.289-15.684-2.118l-2.892.03c-5.104.08-9.994.508-15.045 1.283-1.812.062-3.625.087-5.438.062l-2.62-.027L492 211c3.53-4.553 7.102-4.952 12.5-5.688l2.242-.353c10.612-1.603 21.223-2.14 31.945-2.147z"/>
  <path fill="#1BA9AE" d="M409 305c2.051 2.051 2.641 3.27 3.625 5.938.26.69.52 1.379.79 2.09C414 315 414 315 414 318l-1.693.899a1718.95 1718.95 0 0 0-7.745 4.164l-2.662 1.412c-6.126 3.323-11.523 7.1-16.9 11.525l-2.75 2.16c-14.734 12.457-23.985 33.048-30.83 50.765-3.209 7.907-9.844 10.527-17.045 14.2l-3.004 1.548a3890.59 3890.59 0 0 1-6.682 3.431 2052.024 2052.024 0 0 0-9.723 5.028c-14.995 7.792-30.034 15.494-45.214 22.92-1.45.711-2.9 1.424-4.348 2.14a970.417 970.417 0 0 1-6.025 2.94l-3.451 1.685C253 444 253 444 249 444c.346-6.932 3.372-11.923 6.75-17.875 1.19-2.142 2.377-4.285 3.563-6.43l1.851-3.339c2.956-5.403 5.767-10.88 8.586-16.356 1.594-3.07 3.192-6.139 4.792-9.206.927-1.775 1.85-3.552 2.771-5.33a531.12 531.12 0 0 1 3.5-6.589l.946-1.844c5.316-9.68 14.695-14.206 24.241-18.969 1.224-.621 2.447-1.243 3.67-1.867 6.669-3.392 13.371-6.716 20.08-10.027 6.473-3.223 12.823-6.675 19.188-10.106a1908.201 1908.201 0 0 1 32.562-17.125l2.09-1.076A2026.739 2026.739 0 0 1 409 305z"/>
  <path fill="#023747" d="M520.563 208.625l2.771-.078c5.855-.017 10.956.716 15.666 4.453 1.904 3.056 2.397 5.294 1.715 8.898-3.39 9.966-11.538 17.717-18.715 25.102l-1.737 1.815C511.738 257.707 502.931 265.713 493 273c-1.026.76-2.052 1.519-3.11 2.3-8.665 6.289-17.563 12.24-26.43 18.238-6.376 4.325-12.678 8.728-18.897 13.274-11.019 8.048-22.272 15.757-34.067 22.625-3.937 2.465-7.674 5.208-11.413 7.962-11.274 8.238-11.274 8.238-19.083 7.601l-1-3c6.107-9.558 16.354-14.726 26-20 1.27-.745 2.54-1.491 3.809-2.238C412 318 412 318 414 318l-5-12a3383.64 3383.64 0 0 0-35.125 17.75l-2.585 1.323c-10.87 5.567-21.665 11.232-32.346 17.157-7.159 3.951-14.467 7.462-21.944 10.77l-5-4c.598-2.701 1.333-4.496 3.576-6.189 2.168-1.251 4.368-2.388 6.612-3.499l2.574-1.314c7.066-3.549 14.294-6.673 21.57-9.763 31.799-13.642 62.796-29.782 92.544-47.4 5.595-3.288 11.236-6.497 16.874-9.71l3.542-2.02c2.378-1.357 4.756-2.713 7.135-4.068A17581.48 17581.48 0 0 0 498 247l1.819-1.041c4.187-2.4 8.372-4.803 12.556-7.209l3.278-1.88c4.89-2.816 9.71-5.65 14.347-8.87l-1-2-3.242 1.547c-10.73 5.106-21.506 10.104-32.308 15.057a493.6 493.6 0 0 0-22.18 10.873c-3.41 1.588-6.59 2.736-10.27 3.523-3.438-1.375-3.438-1.375-6-3 2.282-2.48 4.651-4.137 7.543-5.855l2.734-1.626 2.91-1.706 2.968-1.756c6.574-3.848 13.221-7.424 20.184-10.52 3.407-1.566 3.407-1.566 5.766-4.373-.157-3.235-1.543-5.413-3.105-8.226-1.75-3.16-1.75-3.16-3-5.938l1-3c9.51-1.413 18.944-2.245 28.563-2.375z"/>
  <path fill="#023742" d="M332 257l5 1 1 5-4 2 2 1c-.746 7.46-2.367 14.69-4 22l5-3c-1.347 3.494-2.865 6.825-4.566 10.16l-1.471 2.904c-1.02 2.004-2.04 4.006-3.063 6.008l-1.466 2.9-1.342 2.634A28.77 28.77 0 0 0 323 316c11.212-4.518 22.185-9.562 33.188-14.563l8.467-3.841c1.744-.79 3.487-1.582 5.23-2.374 1.589-.722 3.179-1.441 4.77-2.157 1.631-.74 3.256-1.496 4.875-2.261l2.448-1.14 2.197-1.04L386 288l2 1-1 1h5v2c-91.45 43.062-91.45 43.062-117.062 43.25-1.061.03-1.061.03-2.143.063-3.02.022-5.483-.186-8.291-1.329-1.933-2.55-2.054-4.67-1.886-7.821.665-3.761 2.363-6.735 4.32-9.975l1.223-2.1c3.707-6.196 8.126-11.631 12.839-17.088 2.796-3.585 5.478-7.217 8-11 .597 2.763 1 5.16 1 8 6.028-7.059 6.028-7.059 11.375-14.625C303 277 303 277 306 276l3 2-.578 2.266c-.661 2.936-1.218 5.73-1.422 8.734 1.648 2.567 1.648 2.567 4 4l1 3c1.356-2.395 2.71-4.79 4.063-7.188l1.232-2.184a672.609 672.609 0 0 0 9.197-16.956C328 267 328 267 329.652 264.844c1.824-2.496 2.004-4.816 2.348-7.844z"/>
  <path fill="#00343E" d="M520.563 208.625l2.771-.078c5.855-.017 10.956.716 15.666 4.453 1.898 2.95 2.006 3.918 1.75 7.563C540 224 540 224 538 227c-1.938-.375-1.938-.375-4-1l-1-2-1.773.891c-3.429 1.707-6.891 3.343-10.352 4.984l-2.482 1.177c-8.284 3.918-16.614 7.733-24.944 11.552a493.484 493.484 0 0 0-22.18 10.873c-3.41 1.588-6.589 2.736-10.269 3.523-3.438-1.375-3.438-1.375-6-3 2.282-2.48 4.651-4.137 7.543-5.855l2.734-1.626 2.91-1.707 2.968-1.755c6.574-3.848 13.221-7.424 20.184-10.52 3.407-1.566 3.407-1.566 5.766-4.373-.157-3.235-1.543-5.413-3.105-8.226-1.75-3.16-1.75-3.16-3-5.938l1-3c9.51-1.413 18.944-2.245 28.563-2.375z"/>
  <path fill="#1BA5AB" d="M507 249l2 1c-6.253 14.248-28.324 24.876-40.641 33.521-11.89 8.347-23.62 16.92-35.359 25.479-2-2-2-2-2.75-4.438-1.687-3.457-3.777-4.128-7.25-5.562 1.356-4.067 3.905-4.859 7.5-6.75 7.323-3.983 14.489-8.191 21.625-12.5a54127.914 54127.914 0 0 1 9.712-5.847c36.696-22.08 36.696-22.08 45.163-24.903z"/>
  <path fill="#1BA6AB" d="M332 257l5 1 1 5-4 2 2 1c-.875 7.75-.875 7.75-2 10h-2l-.25 2.563c-.734 3.362-1.976 5.589-3.703 8.521-1.68 3.075-2.815 6.308-3.985 9.604-.515 1.405-1.032 2.81-1.55 4.214l-.768 2.09a378.024 378.024 0 0 1-3.369 8.758l-1.102 2.797c-1.847 3.56-3.87 5.801-7.527 7.5l-2.308.703-2.317.734C303 324 303 324 300 324c.62-4.506 2.416-8.185 4.484-12.176l1.072-2.104a1866.66 1866.66 0 0 1 2.275-4.443c1.158-2.255 2.305-4.516 3.448-6.778 1.922-3.8 3.855-7.594 5.795-11.385.794-1.553 1.584-3.107 2.373-4.662a1926.36 1926.36 0 0 1 3.506-6.87l1.055-2.09c1.998-3.878 4.25-7.079 6.992-10.492.797-3.188.797-3.188 1-6z"/>
  <path fill="#1AA4A9" d="M305 276l4 2c-1.75 5.75-1.75 5.75-4 8l-.803 2.63c-1.515 4.265-3.791 7.584-6.353 11.288l-1.524 2.24c-1.6 2.347-3.21 4.689-4.82 7.03a6942.96 6942.96 0 0 0-3.246 4.755 3738.86 3738.86 0 0 1-7.154 10.446A498.934 498.934 0 0 0 278 329c-3.716.27-6.457.18-10-1 .548-4.206 1.89-6.637 4.438-10l2.16-2.875L277 312l1.324-1.727c1.778-2.319 3.557-4.637 5.35-6.945 1.862-2.4 3.64-4.798 5.326-7.328h2l.266-1.66c2.186-6.965 8.375-13.484 13.734-18.34z"/>
  <path fill="#00383B" d="M407 321l2 1v4l3 2c-2.85 2.09-5.706 4.17-8.563 6.25l-2.423 1.777c-13.225 9.609-13.225 9.609-21.014 8.973l-1-3c6.4-10.016 17.665-15.832 28-21z"/>
  <path fill="#005454" d="M492 211h10v2l3 1c-.256 1.607-.53 3.21-.813 4.813l-.457 2.707c-.784 2.663-1.616 3.737-3.73 5.48-3-1-3-1-4.64-3.617l-1.61-3.258-1.64-3.242C491 214 491 214 492 211z"/>
  <path fill="#2C84BF" d="M424 305c.625 2.375.625 2.375 1 5l-2 2c-4.556-.556-4.556-.556-6-2a99.984 99.984 0 0 1 0-5c2.667-1.333 4.167-.671 7 0z"/>
  <path fill="#2F8BC8" d="M305 276l4 2-2 6-7-1c1.25-3.653 1.671-4.78 5-7z"/>
  <path fill="#308BC9" d="M332 257l5 1 1 5a88.406 88.406 0 0 1-5 1c-1-1-1-1-1.063-4.063L332 257z"/>
</svg>
